# 3ds Max Wavefront OBJ Exporter v0.97b - (c)2007 guruware
# File Created: 26.10.2019 12:27:43

mtllib lectern_01.mtl

#
# object Box001
#

v  -9.2746 -40.0000 10.5653
v  -9.2746 -40.0000 3.8986
v  -2.6080 -40.0000 3.8986
v  -2.6080 -40.0000 10.5653
v  4.0587 -40.0000 3.8986
v  4.0587 -40.0000 10.5653
v  10.7254 -40.0000 3.8986
v  10.7254 -40.0000 10.5653
v  -9.2746 -40.0000 -2.7681
v  -2.6080 -40.0000 -2.7681
v  4.0587 -40.0000 -2.7681
v  10.7254 -40.0000 -2.7681
v  -9.2746 -40.0000 -9.4347
v  -2.6080 -40.0000 -9.4347
v  4.0587 -40.0000 -9.4347
v  10.7254 -40.0000 -9.4347
v  -9.2746 -35.0000 10.5653
v  -2.6080 -35.0000 10.5653
v  -2.6080 -35.0000 5.8986
v  -2.6392 -35.0000 5.4299
v  -2.7330 -35.0000 5.0236
v  -2.8892 -35.0000 4.6799
v  -3.1080 -35.0000 4.3986
v  -3.3892 -35.0000 4.1799
v  -3.7330 -35.0000 4.0236
v  -4.1392 -35.0000 3.9299
v  -4.6080 -35.0000 3.8986
v  -9.2746 -35.0000 3.8986
v  4.0587 -35.0000 10.5653
v  4.0587 -35.0000 5.8986
v  4.0274 -35.0000 5.4299
v  3.9337 -35.0000 5.0236
v  3.7774 -35.0000 4.6799
v  3.5587 -35.0000 4.3986
v  3.2774 -35.0000 4.1799
v  2.9337 -35.0000 4.0236
v  2.5274 -35.0000 3.9299
v  2.0587 -35.0000 3.8986
v  -0.6080 -35.0000 3.8986
v  -1.0767 -35.0000 3.9299
v  -1.4830 -35.0000 4.0236
v  -1.8267 -35.0000 4.1799
v  -2.1080 -35.0000 4.3986
v  -2.3267 -35.0000 4.6799
v  -2.4830 -35.0000 5.0236
v  -2.5767 -35.0000 5.4299
v  10.7254 -35.0000 10.5653
v  10.7254 -35.0000 3.8986
v  6.0587 -35.0000 3.8986
v  5.5899 -35.0000 3.9299
v  5.1837 -35.0000 4.0236
v  4.8399 -35.0000 4.1799
v  4.5587 -35.0000 4.3986
v  4.3399 -35.0000 4.6799
v  4.1837 -35.0000 5.0236
v  4.0899 -35.0000 5.4299
v  -4.1392 -35.0000 3.8674
v  -3.7330 -35.0000 3.7736
v  -3.3892 -35.0000 3.6174
v  -3.1080 -35.0000 3.3986
v  -2.8892 -35.0000 3.1174
v  -2.7330 -35.0000 2.7736
v  -2.6392 -35.0000 2.3674
v  -2.6080 -35.0000 1.8986
v  -2.6080 -35.0000 -0.7681
v  -2.6392 -35.0000 -1.2368
v  -2.7330 -35.0000 -1.6431
v  -2.8892 -35.0000 -1.9868
v  -3.1080 -35.0000 -2.2681
v  -3.3892 -35.0000 -2.4868
v  -3.7330 -35.0000 -2.6431
v  -4.1392 -35.0000 -2.7368
v  -4.6080 -35.0000 -2.7681
v  -9.2746 -35.0000 -2.7681
v  -2.6080 61.5805 1.8986
v  -2.5767 61.5805 2.3674
v  -2.4830 61.5771 2.7736
v  -2.3267 63.5738 3.1174
v  -2.1080 63.5738 3.3986
v  -1.8267 63.5738 3.6174
v  -1.4830 63.5738 3.7736
v  -1.0767 63.5738 3.8674
v  -0.6080 63.5738 3.8986
v  2.0587 63.5738 3.8986
v  2.5274 63.5738 3.8674
v  2.9337 63.5738 3.7736
v  3.2774 63.5738 3.6174
v  3.5587 63.5738 3.3986
v  3.7774 63.5738 3.1174
v  3.9337 61.5771 2.7736
v  4.0274 61.5771 2.3674
v  4.0587 61.5771 1.8986
v  4.0587 58.3548 -0.7681
v  4.0274 57.2145 -1.2368
v  3.9337 56.2570 -1.6431
v  3.7774 56.2570 -1.9868
v  3.5587 55.0000 -2.2681
v  3.2774 55.0000 -2.4868
v  2.9337 55.0000 -2.6431
v  2.5274 55.0000 -2.7368
v  2.0587 55.0000 -2.7681
v  -0.6080 55.0000 -2.7681
v  -1.0767 55.0000 -2.7368
v  -1.4830 55.0000 -2.6431
v  -1.8267 55.0000 -2.4868
v  -2.1080 55.0000 -2.2681
v  -2.3267 56.2570 -1.9868
v  -2.4830 56.2570 -1.6431
v  -2.5767 57.2145 -1.2368
v  -2.6080 58.3548 -0.7681
v  4.0587 -35.0000 1.8986
v  4.0899 -35.0000 2.3674
v  4.1837 -35.0000 2.7736
v  4.3399 -35.0000 3.1174
v  4.5587 -35.0000 3.3986
v  4.8399 -35.0000 3.6174
v  5.1837 -35.0000 3.7736
v  5.5899 -35.0000 3.8674
v  10.7254 -35.0000 -2.7681
v  6.0587 -35.0000 -2.7681
v  5.5899 -35.0000 -2.7368
v  5.1837 -35.0000 -2.6431
v  4.8399 -35.0000 -2.4868
v  4.5587 -35.0000 -2.2681
v  4.3399 -35.0000 -1.9868
v  4.1837 -35.0000 -1.6431
v  4.0899 -35.0000 -1.2368
v  4.0587 -35.0000 -0.7681
v  -4.1392 -35.0000 -2.7993
v  -3.7330 -35.0000 -2.8931
v  -3.3892 -35.0000 -3.0493
v  -3.1080 -35.0000 -3.2681
v  -2.8892 -35.0000 -3.5493
v  -2.7330 -35.0000 -3.8931
v  -2.6392 -35.0000 -4.2993
v  -2.6080 -35.0000 -4.7681
v  -2.6080 -35.0000 -9.4347
v  -9.2746 -35.0000 -9.4347
v  -2.5767 -35.0000 -4.2993
v  -2.4830 -35.0000 -3.8931
v  -2.3267 -35.0000 -3.5493
v  -2.1080 -35.0000 -3.2681
v  -1.8267 -35.0000 -3.0493
v  -1.4830 -35.0000 -2.8931
v  -1.0767 -35.0000 -2.7993
v  -0.6080 -35.0000 -2.7681
v  2.0587 -35.0000 -2.7681
v  2.5274 -35.0000 -2.7993
v  2.9337 -35.0000 -2.8931
v  3.2774 -35.0000 -3.0493
v  3.5587 -35.0000 -3.2681
v  3.7774 -35.0000 -3.5493
v  3.9337 -35.0000 -3.8931
v  4.0274 -35.0000 -4.2993
v  4.0587 -35.0000 -4.7681
v  4.0587 -35.0000 -9.4347
v  4.0899 -35.0000 -4.2993
v  4.1837 -35.0000 -3.8931
v  4.3399 -35.0000 -3.5493
v  4.5587 -35.0000 -3.2681
v  4.8399 -35.0000 -3.0493
v  5.1837 -35.0000 -2.8931
v  5.5899 -35.0000 -2.7993
v  10.7254 -35.0000 -9.4347
v  -2.1080 -35.0000 3.3986
v  -2.5767 -35.0000 2.3674
v  -1.0767 -35.0000 3.8674
v  -1.4830 -35.0000 3.7736
v  -2.4830 -35.0000 2.7736
v  -1.8267 -35.0000 3.6174
v  -2.3267 -35.0000 3.1174
v  3.5587 -35.0000 3.3986
v  2.5274 -35.0000 3.8674
v  4.0274 -35.0000 2.3674
v  3.9337 -35.0000 2.7736
v  2.9337 -35.0000 3.7736
v  3.7774 -35.0000 3.1174
v  3.2774 -35.0000 3.6174
v  3.5587 -35.0000 -2.2681
v  4.0274 -35.0000 -1.2368
v  2.5274 -35.0000 -2.7368
v  2.9337 -35.0000 -2.6431
v  3.9337 -35.0000 -1.6431
v  3.2774 -35.0000 -2.4868
v  3.7774 -35.0000 -1.9868
v  -2.1080 -35.0000 -2.2681
v  -1.0767 -35.0000 -2.7368
v  -2.5767 -35.0000 -1.2368
v  -2.4830 -35.0000 -1.6431
v  -1.4830 -35.0000 -2.6431
v  -2.3267 -35.0000 -1.9868
v  -1.8267 -35.0000 -2.4868
# 192 vertices

vn -0.5774 -0.5774 0.5774
vn -0.7071 -0.7071 -0.0000
vn 0.0000 -1.0000 -0.0000
vn 0.0000 -0.7071 0.7071
vn 0.7071 -0.7071 -0.0000
vn 0.5774 -0.5774 0.5774
vn -0.5774 -0.5774 -0.5774
vn 0.0000 -0.7071 -0.7071
vn 0.5774 -0.5774 -0.5774
vn -0.5774 0.5774 0.5774
vn 0.0000 0.7071 0.7071
vn 0.0000 1.0000 -0.0000
vn -0.7071 0.7071 -0.0000
vn 0.0233 0.7146 0.6991
vn -0.0233 0.7147 0.6990
vn 0.5774 0.5774 0.5774
vn 0.7071 0.7071 -0.0000
vn -0.6991 0.7146 0.0233
vn -0.6990 0.7147 -0.0233
vn -0.0484 0.9375 -0.3447
vn -0.6986 0.7076 0.1060
vn -0.9489 0.0105 0.3154
vn -0.3204 0.8706 -0.3734
vn -0.5183 0.6803 0.5183
vn -0.3786 0.6817 0.6261
vn -0.2337 0.6853 0.6897
vn -0.1059 0.6895 0.7165
vn -0.0238 0.6997 0.7140
vn 0.0238 0.6997 0.7140
vn 0.1059 0.6895 0.7165
vn 0.2337 0.6853 0.6897
vn 0.3786 0.6817 0.6261
vn 0.5183 0.6802 0.5183
vn 0.3173 0.8707 -0.3758
vn 0.9489 0.0105 0.3153
vn 0.7164 0.6896 0.1059
vn 0.0537 0.9374 -0.3442
vn 0.0429 0.5870 -0.8084
vn 0.7449 0.2314 -0.6258
vn 0.9425 0.0272 -0.3330
vn -0.1663 0.8828 -0.4393
vn 0.6993 0.0206 -0.7145
vn 0.3786 0.6817 -0.6261
vn 0.2337 0.6853 -0.6897
vn 0.1059 0.6896 -0.7164
vn 0.0238 0.6997 -0.7140
vn -0.0238 0.6997 -0.7140
vn -0.1059 0.6896 -0.7164
vn -0.2337 0.6853 -0.6897
vn -0.3786 0.6817 -0.6261
vn -0.6993 0.0206 -0.7145
vn 0.1663 0.8828 -0.4393
vn -0.9425 0.0272 -0.3330
vn -0.7449 0.2314 -0.6258
vn -0.0429 0.5867 -0.8086
vn 0.6990 0.7147 0.0233
vn 0.6991 0.7146 -0.0233
vn 0.0000 0.7071 -0.7071
vn -0.5774 0.5774 -0.5774
vn -0.0233 0.7147 -0.6990
vn 0.0233 0.7147 -0.6990
vn 0.5774 0.5774 -0.5774
vn -0.4786 0.7361 0.4786
vn -0.6807 0.7256 0.1006
vn -0.1006 0.7255 0.6808
vn -0.2192 0.7303 0.6470
vn -0.6470 0.7303 0.2192
vn -0.3512 0.7344 0.5808
vn -0.5808 0.7344 0.3512
vn 0.4786 0.7361 0.4786
vn 0.1006 0.7256 0.6807
vn 0.6808 0.7255 0.1006
vn 0.6470 0.7303 0.2192
vn 0.2192 0.7303 0.6470
vn 0.5808 0.7344 0.3512
vn 0.3512 0.7344 0.5808
vn 0.4786 0.7361 -0.4786
vn 0.6807 0.7256 -0.1006
vn 0.1006 0.7256 -0.6807
vn 0.2192 0.7303 -0.6470
vn 0.6470 0.7303 -0.2192
vn 0.3512 0.7344 -0.5808
vn 0.5808 0.7344 -0.3512
vn -0.4786 0.7361 -0.4786
vn -0.1006 0.7256 -0.6807
vn -0.6808 0.7255 -0.1006
vn -0.6470 0.7303 -0.2192
vn -0.2192 0.7303 -0.6470
vn -0.5808 0.7344 -0.3512
vn -0.3512 0.7344 -0.5808
# 90 vertex normals

vt 1.0000 0.0000 0.0000
vt 1.0000 0.3333 0.0000
vt 0.6667 0.3333 0.0000
vt 0.6667 0.0000 0.0000
vt 0.3333 0.3333 0.0000
vt 0.3333 0.0000 0.0000
vt -0.0000 0.3333 0.0000
vt -0.0000 0.0000 0.0000
vt 1.0000 0.6667 0.0000
vt 0.6667 0.6667 0.0000
vt 0.3333 0.6667 0.0000
vt -0.0000 0.6667 0.0000
vt 1.0000 1.0000 0.0000
vt 0.6667 1.0000 0.0000
vt 0.3333 1.0000 0.0000
vt -0.0000 1.0000 0.0000
vt 0.0000 0.0000 0.0000
vt 0.3333 0.2333 0.0000
vt 0.3318 0.2568 0.0000
vt 0.3271 0.2771 0.0000
vt 0.3193 0.2943 0.0000
vt 0.3083 0.3083 0.0000
vt 0.2943 0.3193 0.0000
vt 0.2771 0.3271 0.0000
vt 0.2568 0.3318 0.0000
vt 0.2333 0.3333 0.0000
vt 0.0000 0.3333 0.0000
vt 0.6667 0.2333 0.0000
vt 0.6651 0.2568 0.0000
vt 0.6604 0.2771 0.0000
vt 0.6526 0.2943 0.0000
vt 0.6417 0.3083 0.0000
vt 0.6276 0.3193 0.0000
vt 0.6104 0.3271 0.0000
vt 0.5901 0.3318 0.0000
vt 0.5667 0.3333 0.0000
vt 0.4333 0.3333 0.0000
vt 0.4099 0.3318 0.0000
vt 0.3896 0.3271 0.0000
vt 0.3724 0.3193 0.0000
vt 0.3583 0.3083 0.0000
vt 0.3474 0.2943 0.0000
vt 0.3396 0.2771 0.0000
vt 0.3349 0.2568 0.0000
vt 0.7667 0.3333 0.0000
vt 0.7432 0.3318 0.0000
vt 0.7229 0.3271 0.0000
vt 0.7057 0.3193 0.0000
vt 0.6917 0.3083 0.0000
vt 0.6807 0.2943 0.0000
vt 0.6729 0.2771 0.0000
vt 0.6682 0.2568 0.0000
vt 0.2568 0.3349 0.0000
vt 0.2771 0.3396 0.0000
vt 0.2943 0.3474 0.0000
vt 0.3083 0.3583 0.0000
vt 0.3193 0.3724 0.0000
vt 0.3271 0.3896 0.0000
vt 0.3318 0.4099 0.0000
vt 0.3333 0.4333 0.0000
vt 0.3333 0.5667 0.0000
vt 0.3318 0.5901 0.0000
vt 0.3271 0.6104 0.0000
vt 0.3193 0.6276 0.0000
vt 0.3083 0.6417 0.0000
vt 0.2943 0.6526 0.0000
vt 0.2771 0.6604 0.0000
vt 0.2568 0.6651 0.0000
vt 0.2333 0.6667 0.0000
vt 0.0000 0.6667 0.0000
vt 0.3349 0.4099 0.0000
vt 0.3396 0.3896 0.0000
vt 0.3474 0.3724 0.0000
vt 0.3583 0.3583 0.0000
vt 0.3724 0.3474 0.0000
vt 0.3896 0.3396 0.0000
vt 0.4099 0.3349 0.0000
vt 0.5901 0.3349 0.0000
vt 0.6104 0.3396 0.0000
vt 0.6276 0.3474 0.0000
vt 0.6417 0.3583 0.0000
vt 0.6526 0.3724 0.0000
vt 0.6604 0.3896 0.0000
vt 0.6651 0.4099 0.0000
vt 0.6667 0.4333 0.0000
vt 0.6667 0.5667 0.0000
vt 0.6651 0.5901 0.0000
vt 0.6604 0.6104 0.0000
vt 0.6526 0.6276 0.0000
vt 0.6417 0.6417 0.0000
vt 0.6276 0.6526 0.0000
vt 0.6104 0.6604 0.0000
vt 0.5901 0.6651 0.0000
vt 0.5667 0.6667 0.0000
vt 0.4333 0.6667 0.0000
vt 0.4099 0.6651 0.0000
vt 0.3896 0.6604 0.0000
vt 0.3724 0.6526 0.0000
vt 0.3583 0.6417 0.0000
vt 0.3474 0.6276 0.0000
vt 0.3396 0.6104 0.0000
vt 0.3349 0.5901 0.0000
vt 0.6682 0.4099 0.0000
vt 0.6729 0.3896 0.0000
vt 0.6807 0.3724 0.0000
vt 0.6917 0.3583 0.0000
vt 0.7057 0.3474 0.0000
vt 0.7229 0.3396 0.0000
vt 0.7432 0.3349 0.0000
vt 0.7667 0.6667 0.0000
vt 0.7432 0.6651 0.0000
vt 0.7229 0.6604 0.0000
vt 0.7057 0.6526 0.0000
vt 0.6917 0.6417 0.0000
vt 0.6807 0.6276 0.0000
vt 0.6729 0.6104 0.0000
vt 0.6682 0.5901 0.0000
vt 0.2568 0.6682 0.0000
vt 0.2771 0.6729 0.0000
vt 0.2943 0.6807 0.0000
vt 0.3083 0.6917 0.0000
vt 0.3193 0.7057 0.0000
vt 0.3271 0.7229 0.0000
vt 0.3318 0.7432 0.0000
vt 0.3333 0.7667 0.0000
vt 0.0000 1.0000 0.0000
vt 0.3349 0.7432 0.0000
vt 0.3396 0.7229 0.0000
vt 0.3474 0.7057 0.0000
vt 0.3583 0.6917 0.0000
vt 0.3724 0.6807 0.0000
vt 0.3896 0.6729 0.0000
vt 0.4099 0.6682 0.0000
vt 0.5901 0.6682 0.0000
vt 0.6104 0.6729 0.0000
vt 0.6276 0.6807 0.0000
vt 0.6417 0.6917 0.0000
vt 0.6526 0.7057 0.0000
vt 0.6604 0.7229 0.0000
vt 0.6651 0.7432 0.0000
vt 0.6667 0.7667 0.0000
vt 0.6682 0.7432 0.0000
vt 0.6729 0.7229 0.0000
vt 0.6807 0.7057 0.0000
vt 0.6917 0.6917 0.0000
vt 0.7057 0.6807 0.0000
vt 0.7229 0.6729 0.0000
vt 0.7432 0.6682 0.0000
vt 0.3833 0.3833 0.0000
vt 0.3458 0.4208 0.0000
vt 0.4208 0.3458 0.0000
vt 0.4083 0.3583 0.0000
vt 0.3583 0.4083 0.0000
vt 0.3958 0.3708 0.0000
vt 0.3708 0.3958 0.0000
vt 0.6167 0.3833 0.0000
vt 0.5792 0.3458 0.0000
vt 0.6542 0.4208 0.0000
vt 0.6417 0.4083 0.0000
vt 0.5917 0.3583 0.0000
vt 0.6292 0.3958 0.0000
vt 0.6042 0.3708 0.0000
vt 0.3833 0.6167 0.0000
vt 0.4208 0.6542 0.0000
vt 0.3458 0.5792 0.0000
vt 0.3583 0.5917 0.0000
vt 0.4083 0.6417 0.0000
vt 0.3708 0.6042 0.0000
vt 0.3958 0.6292 0.0000
# 169 texture coords

o Box001
g Box001
usemtl wire_027177148
s 1
f 1/1/1 2/2/2 3/3/3 4/4/4 
f 4/4/4 3/3/3 5/5/3 6/6/4 
f 6/6/4 5/5/3 7/7/5 8/8/6 
f 2/2/2 9/9/2 10/10/3 3/3/3 
f 3/3/3 10/10/3 11/11/3 5/5/3 
f 5/5/3 11/11/3 12/12/5 7/7/5 
f 9/9/2 13/13/7 14/14/8 10/10/3 
f 10/10/3 14/14/8 15/15/8 11/11/3 
f 11/11/3 15/15/8 16/16/9 12/12/5 
f 17/17/10 18/6/11 19/18/12 20/19/12 21/20/12 22/21/12 23/22/12 24/23/12 25/24/12 26/25/12 27/26/12 28/27/13 
f 18/6/11 29/4/11 30/28/12 31/29/12 32/30/12 33/31/12 34/32/12 35/33/12 36/34/12 37/35/12 38/36/14 39/37/15 40/38/12 41/39/12 42/40/12 43/41/12 44/42/12 45/43/12 46/44/12 19/18/12 
f 29/4/11 47/1/16 48/2/17 49/45/12 50/46/12 51/47/12 52/48/12 53/49/12 54/50/12 55/51/12 56/52/12 30/28/12 
f 28/27/13 27/26/12 57/53/12 58/54/12 59/55/12 60/56/12 61/57/12 62/58/12 63/59/12 64/60/18 65/61/19 66/62/12 67/63/12 68/64/12 69/65/12 70/66/12 71/67/12 72/68/12 73/69/12 74/70/13 
f 75/60/20 76/71/21 77/72/22 78/73/23 79/74/24 80/75/25 81/76/26 82/77/27 83/37/28 84/36/29 85/78/30 86/79/31 87/80/32 88/81/33 89/82/34 90/83/35 91/84/36 92/85/37 93/86/38 94/87/39 95/88/40 96/89/41 97/90/42 98/91/43 99/92/44 100/93/45 101/94/46 102/95/47 103/96/48 104/97/49 105/98/50 106/99/51 107/100/52 108/101/53 109/102/54 110/61/55 
f 111/85/56 112/103/12 113/104/12 114/105/12 115/106/12 116/107/12 117/108/12 118/109/12 49/45/12 48/2/17 119/9/17 120/110/12 121/111/12 122/112/12 123/113/12 124/114/12 125/115/12 126/116/12 127/117/12 128/86/57 
f 74/70/13 73/69/12 129/118/12 130/119/12 131/120/12 132/121/12 133/122/12 134/123/12 135/124/12 136/125/12 137/15/58 138/126/59 
f 136/125/12 139/127/12 140/128/12 141/129/12 142/130/12 143/131/12 144/132/12 145/133/12 146/95/60 147/94/61 148/134/12 149/135/12 150/136/12 151/137/12 152/138/12 153/139/12 154/140/12 155/141/12 156/14/58 137/15/58 
f 155/141/12 157/142/12 158/143/12 159/144/12 160/145/12 161/146/12 162/147/12 163/148/12 120/110/12 119/9/17 164/13/62 156/14/58 
s 2
f 1/17/1 4/6/4 18/15/11 17/126/10 
f 4/6/4 6/4/4 29/14/11 18/15/11 
f 6/4/4 8/1/6 47/13/16 29/14/11 
s 4
f 8/17/6 7/6/5 48/15/17 47/126/16 
f 7/6/5 12/4/5 119/14/17 48/15/17 
f 12/4/5 16/1/9 164/13/62 119/14/17 
s 2
f 16/17/9 15/6/8 156/15/58 164/126/62 
f 15/6/8 14/4/8 137/14/58 156/15/58 
f 14/4/8 13/1/7 138/13/59 137/14/58 
s 4
f 13/17/7 9/6/2 74/15/13 138/126/59 
f 9/6/2 2/4/2 28/14/13 74/15/13 
f 2/4/2 1/1/1 17/13/10 28/14/13 
s 2
f 39/37/15 38/36/14 84/36/29 83/37/28 
f 111/85/56 128/86/57 93/86/38 92/85/37 
f 147/94/61 146/95/60 102/95/47 101/94/46 
f 65/61/19 64/60/18 75/60/20 110/61/55 
s 1
f 43/41/12 165/149/63 60/56/12 23/22/12 
s 2
f 64/60/18 166/150/64 76/71/21 75/60/20 
s 1
f 20/19/12 19/18/12 46/44/12 
f 40/38/12 39/37/15 167/151/65 
f 166/150/64 64/60/18 63/59/12 
f 57/53/12 27/26/12 26/25/12 
f 21/20/12 20/19/12 46/44/12 45/43/12 
f 41/39/12 40/38/12 167/151/65 168/152/66 
f 169/153/67 166/150/64 63/59/12 62/58/12 
f 58/54/12 57/53/12 26/25/12 25/24/12 
f 22/21/12 21/20/12 45/43/12 44/42/12 
f 42/40/12 41/39/12 168/152/66 170/154/68 
f 171/155/69 169/153/67 62/58/12 61/57/12 
f 59/55/12 58/54/12 25/24/12 24/23/12 
f 23/22/12 22/21/12 44/42/12 43/41/12 
f 43/41/12 42/40/12 170/154/68 165/149/63 
f 165/149/63 171/155/69 61/57/12 60/56/12 
f 60/56/12 59/55/12 24/23/12 23/22/12 
s 2
f 166/150/64 169/153/67 77/72/22 76/71/21 
f 169/153/67 171/155/69 78/73/23 77/72/22 
f 171/155/69 165/149/63 79/74/24 78/73/23 
f 165/149/63 170/154/68 80/75/25 79/74/24 
f 170/154/68 168/152/66 81/76/26 80/75/25 
f 168/152/66 167/151/65 82/77/27 81/76/26 
f 167/151/65 39/37/15 83/37/28 82/77/27 
s 1
f 53/49/12 115/106/12 172/156/70 34/32/12 
s 2
f 38/36/14 173/157/71 85/78/30 84/36/29 
s 1
f 31/29/12 30/28/12 56/52/12 
f 50/46/12 49/45/12 118/109/12 
f 112/103/12 111/85/56 174/158/72 
f 173/157/71 38/36/14 37/35/12 
f 32/30/12 31/29/12 56/52/12 55/51/12 
f 51/47/12 50/46/12 118/109/12 117/108/12 
f 113/104/12 112/103/12 174/158/72 175/159/73 
f 176/160/74 173/157/71 37/35/12 36/34/12 
f 33/31/12 32/30/12 55/51/12 54/50/12 
f 52/48/12 51/47/12 117/108/12 116/107/12 
f 114/105/12 113/104/12 175/159/73 177/161/75 
f 178/162/76 176/160/74 36/34/12 35/33/12 
f 34/32/12 33/31/12 54/50/12 53/49/12 
f 53/49/12 52/48/12 116/107/12 115/106/12 
f 115/106/12 114/105/12 177/161/75 172/156/70 
f 172/156/70 178/162/76 35/33/12 34/32/12 
s 2
f 173/157/71 176/160/74 86/79/31 85/78/30 
f 176/160/74 178/162/76 87/80/32 86/79/31 
f 178/162/76 172/156/70 88/81/33 87/80/32 
f 172/156/70 177/161/75 89/82/34 88/81/33 
f 177/161/75 175/159/73 90/83/35 89/82/34 
f 175/159/73 174/158/72 91/84/36 90/83/35 
f 174/158/72 111/85/56 92/85/37 91/84/36 
s 1
f 179/90/77 124/114/12 160/145/12 151/137/12 
s 2
f 128/86/57 180/87/78 94/87/39 93/86/38 
s 1
f 148/134/12 147/94/61 181/93/79 
f 180/87/78 128/86/57 127/117/12 
f 121/111/12 120/110/12 163/148/12 
f 157/142/12 155/141/12 154/140/12 
f 149/135/12 148/134/12 181/93/79 182/92/80 
f 183/88/81 180/87/78 127/117/12 126/116/12 
f 122/112/12 121/111/12 163/148/12 162/147/12 
f 158/143/12 157/142/12 154/140/12 153/139/12 
f 150/136/12 149/135/12 182/92/80 184/91/82 
f 185/89/83 183/88/81 126/116/12 125/115/12 
f 123/113/12 122/112/12 162/147/12 161/146/12 
f 159/144/12 158/143/12 153/139/12 152/138/12 
f 151/137/12 150/136/12 184/91/82 179/90/77 
f 179/90/77 185/89/83 125/115/12 124/114/12 
f 124/114/12 123/113/12 161/146/12 160/145/12 
f 160/145/12 159/144/12 152/138/12 151/137/12 
s 2
f 180/87/78 183/88/81 95/88/40 94/87/39 
f 183/88/81 185/89/83 96/89/41 95/88/40 
f 185/89/83 179/90/77 97/90/42 96/89/41 
f 179/90/77 184/91/82 98/91/43 97/90/42 
f 184/91/82 182/92/80 99/92/44 98/91/43 
f 182/92/80 181/93/79 100/93/45 99/92/44 
f 181/93/79 147/94/61 101/94/46 100/93/45 
s 1
f 69/65/12 186/163/84 142/130/12 132/121/12 
s 2
f 146/95/60 187/164/85 103/96/48 102/95/47 
s 1
f 129/118/12 73/69/12 72/68/12 
f 66/62/12 65/61/19 188/165/86 
f 187/164/85 146/95/60 145/133/12 
f 139/127/12 136/125/12 135/124/12 
f 130/119/12 129/118/12 72/68/12 71/67/12 
f 67/63/12 66/62/12 188/165/86 189/166/87 
f 190/167/88 187/164/85 145/133/12 144/132/12 
f 140/128/12 139/127/12 135/124/12 134/123/12 
f 131/120/12 130/119/12 71/67/12 70/66/12 
f 68/64/12 67/63/12 189/166/87 191/168/89 
f 192/169/90 190/167/88 144/132/12 143/131/12 
f 141/129/12 140/128/12 134/123/12 133/122/12 
f 132/121/12 131/120/12 70/66/12 69/65/12 
f 69/65/12 68/64/12 191/168/89 186/163/84 
f 186/163/84 192/169/90 143/131/12 142/130/12 
f 142/130/12 141/129/12 133/122/12 132/121/12 
s 2
f 187/164/85 190/167/88 104/97/49 103/96/48 
f 190/167/88 192/169/90 105/98/50 104/97/49 
f 192/169/90 186/163/84 106/99/51 105/98/50 
f 186/163/84 191/168/89 107/100/52 106/99/51 
f 191/168/89 189/166/87 108/101/53 107/100/52 
f 189/166/87 188/165/86 109/102/54 108/101/53 
f 188/165/86 65/61/19 110/61/55 109/102/54 
# 118 polygons - 16 triangles

#
# object Box002
#

v  -13.2718 65.1224 5.9739
v  -13.2718 59.9157 1.8105
v  -3.9114 59.9157 1.8105
v  -3.9114 65.1224 5.9739
v  5.4490 59.9157 1.8105
v  5.4490 65.1224 5.9739
v  14.8094 59.9157 1.8105
v  14.8094 65.1224 5.9739
v  -13.2718 50.9561 -5.3540
v  -3.9114 50.9561 -5.3540
v  5.4490 50.9561 -5.3540
v  14.8094 50.9561 -5.3540
v  -13.2718 49.5023 -6.5165
v  -3.9114 49.5023 -6.5165
v  5.4490 49.5023 -6.5165
v  14.8094 49.5023 -6.5165
v  -13.2718 66.5386 4.2030
v  -3.9114 66.5386 4.2030
v  -3.9114 61.3319 0.0395
v  -13.2718 61.3319 0.0395
v  5.4490 66.5386 4.2030
v  5.4490 61.3319 0.0395
v  14.8094 66.5386 4.2030
v  14.8094 61.3319 0.0395
v  -3.9114 52.3722 -7.1250
v  -13.2718 52.3722 -7.1250
v  5.4490 52.3722 -7.1250
v  14.8094 52.3722 -7.1250
v  -3.9114 52.6249 -10.4216
v  -13.2718 52.6249 -10.4216
v  5.4490 52.6249 -10.4216
v  14.8094 52.6249 -10.4216
# 32 vertices

vn -0.5775 0.0902 0.8114
vn -0.7071 -0.4416 0.5523
vn -0.0000 -0.6245 0.7810
vn 0.0000 0.1106 0.9939
vn 0.0000 -0.6245 0.7810
vn 0.7071 -0.4416 0.5523
vn 0.5774 0.0903 0.8115
vn -0.5773 -0.8115 0.0903
vn -0.0000 -0.9939 0.1106
vn 0.5773 -0.8115 0.0904
vn -0.5774 0.8114 -0.0904
vn 0.0000 0.9939 -0.1106
vn 0.0000 0.6245 -0.7810
vn -0.7070 0.4417 -0.5523
vn -0.0000 0.9939 -0.1106
vn 0.5774 0.8115 -0.0903
vn 0.7071 0.4416 -0.5522
vn 0.0000 0.9172 -0.3985
vn -0.8289 0.5131 -0.2229
vn 0.8288 0.5131 -0.2230
vn 0.0000 0.3668 -0.9303
vn -0.5428 0.3083 -0.7812
vn 0.5427 0.3078 -0.7815
# 23 vertex normals

vt 1.0000 0.0000 0.0000
vt 1.0000 0.3333 0.0000
vt 0.6667 0.3333 0.0000
vt 0.6667 0.0000 0.0000
vt 0.3333 0.3333 0.0000
vt 0.3333 0.0000 0.0000
vt -0.0000 0.3333 0.0000
vt -0.0000 0.0000 0.0000
vt 1.0000 0.6667 0.0000
vt 0.6667 0.6667 0.0000
vt 0.3333 0.6667 0.0000
vt -0.0000 0.6667 0.0000
vt 1.0000 1.0000 0.0000
vt 0.6667 1.0000 0.0000
vt 0.3333 1.0000 0.0000
vt -0.0000 1.0000 0.0000
vt 0.0000 0.0000 0.0000
vt 0.0000 0.3333 0.0000
vt 0.0000 0.6667 0.0000
vt 0.0000 1.0000 0.0000
# 20 texture coords

o Box002
g Box002
usemtl wire_027177148
s 2
f 193/170/91 194/171/92 195/172/93 196/173/94 
f 196/173/94 195/172/93 197/174/95 198/175/94 
f 198/175/94 197/174/95 199/176/96 200/177/97 
f 194/171/92 201/178/92 202/179/93 195/172/93 
f 195/172/93 202/179/93 203/180/93 197/174/95 
f 197/174/95 203/180/93 204/181/96 199/176/96 
f 201/178/92 205/182/98 206/183/99 202/179/93 
f 202/179/93 206/183/99 207/184/99 203/180/93 
f 203/180/93 207/184/99 208/185/100 204/181/96 
s 4
f 209/186/101 210/175/102 211/174/103 212/187/104 
f 210/175/102 213/173/105 214/172/103 211/174/103 
f 213/173/105 215/170/106 216/171/107 214/172/103 
f 212/187/104 211/174/103 217/180/108 218/188/109 
f 211/174/103 214/172/103 219/179/108 217/180/108 
f 214/172/103 216/171/107 220/178/110 219/179/108 
f 218/188/109 217/180/108 221/184/111 222/189/112 
f 217/180/108 219/179/108 223/183/111 221/184/111 
f 219/179/108 220/178/110 224/182/113 223/183/111 
s 8
f 193/186/91 196/175/94 210/184/102 209/189/101 
f 196/175/94 198/173/94 213/183/105 210/184/102 
f 198/173/94 200/170/97 215/182/106 213/183/105 
s 16
f 200/186/97 199/175/96 216/184/107 215/189/106 
f 199/175/96 204/173/96 220/183/110 216/184/107 
f 204/173/96 208/170/100 224/182/113 220/183/110 
s 32
f 208/186/100 207/175/99 223/184/111 224/189/113 
f 207/175/99 206/173/99 221/183/111 223/184/111 
f 206/173/99 205/170/98 222/182/112 221/183/111 
s 64
f 205/186/98 201/175/92 218/184/109 222/189/112 
f 201/175/92 194/173/92 212/183/104 218/184/109 
f 194/173/92 193/170/91 209/182/101 212/183/104 
# 30 polygons

